<?xml version="1.0" standalone="no"?>
<!DOCTYPE svg PUBLIC "-//W3C//DTD SVG 20010904//EN"
 "http://www.w3.org/TR/2001/REC-SVG-20010904/DTD/svg10.dtd">
<svg version="1.0" xmlns="http://www.w3.org/2000/svg"
 width="423.000000pt" height="93.000000pt" viewBox="0 0 423.000000 93.000000"
 preserveAspectRatio="xMidYMid meet" >

<g transform="translate(0.000000,93.000000) scale(0.100000,-0.100000)"
fill="#000000" stroke="none">
<path d="M1825 721 l-40 -6 -3 -277 -2 -278 44 0 c39 0 45 3 50 26 l7 25 30
-25 c57 -48 145 -46 204 5 98 87 81 281 -30 334 -52 24 -136 17 -170 -15 l-25
-23 0 121 c0 92 -3 122 -12 121 -7 -1 -31 -5 -53 -8z m238 -323 c35 -71 -8
-158 -78 -158 -88 0 -132 120 -68 184 47 47 116 35 146 -26z"/>
<path d="M3158 723 l-38 -4 0 -280 0 -279 50 0 49 0 3 87 3 88 74 -88 75 -87
64 0 64 0 -68 78 c-37 42 -76 87 -87 99 -23 25 -23 24 71 132 l54 61 -59 -1
-58 0 -60 -74 c-33 -40 -63 -74 -67 -74 -5 -1 -8 78 -8 174 0 134 -3 175 -12
173 -7 -1 -30 -3 -50 -5z"/>
<path d="M381 707 c-41 -20 -64 -62 -69 -122 -4 -53 -6 -55 -33 -55 -27 0 -29
-3 -29 -40 0 -38 2 -40 30 -40 l30 0 0 -145 0 -145 50 0 49 0 3 143 3 142 43
3 c37 3 42 6 42 27 0 13 3 30 6 39 5 12 -4 15 -43 18 -48 3 -48 3 -46 38 2 41
32 70 74 70 27 0 29 3 29 40 l0 40 -57 0 c-32 0 -69 -6 -82 -13z"/>
<path d="M621 523 c-19 -9 -47 -37 -62 -62 -24 -37 -29 -56 -29 -108 0 -78 16
-119 63 -160 63 -55 155 -56 209 -3 l28 28 0 -29 c0 -28 2 -29 45 -29 l45 0 0
185 0 185 -45 0 c-42 0 -45 -2 -45 -27 l0 -27 -30 29 c-38 37 -125 46 -179 18z
m144 -78 c62 -30 77 -125 26 -176 -65 -65 -161 -15 -161 85 0 40 38 92 73 99
12 2 24 5 25 6 2 0 19 -6 37 -14z"/>
<path d="M1085 521 c-48 -22 -69 -44 -90 -94 -22 -54 -19 -126 8 -178 50 -97
207 -129 296 -60 24 18 24 18 5 50 -21 36 -22 36 -60 16 -91 -47 -181 27 -154
127 14 49 50 71 109 66 25 -3 53 -8 61 -11 11 -5 21 2 34 24 15 26 16 33 5 44
-41 37 -150 46 -214 16z"/>
<path d="M1455 526 c-70 -31 -111 -114 -102 -203 14 -131 136 -201 279 -159
72 21 84 35 64 74 l-16 30 -48 -20 c-36 -15 -59 -19 -85 -14 -36 7 -97 49 -97
67 0 5 61 9 136 9 l137 0 -6 60 c-6 67 -28 113 -70 144 -35 26 -147 33 -192
12z m145 -86 c11 -11 20 -29 20 -40 0 -18 -7 -20 -85 -20 -95 0 -106 10 -60
55 31 32 96 34 125 5z"/>
<path d="M2335 526 c-122 -55 -152 -222 -56 -317 93 -93 265 -70 320 43 38 79
22 188 -36 240 -50 45 -164 62 -228 34z m152 -99 c29 -26 38 -76 23 -121 -23
-71 -98 -89 -151 -37 -24 25 -29 38 -29 79 0 40 5 54 26 75 40 40 90 42 131 4z"/>
<path d="M2775 526 c-43 -19 -92 -78 -106 -128 -27 -101 35 -212 131 -238 140
-38 260 49 260 188 0 88 -31 139 -105 173 -47 22 -136 24 -180 5z m152 -99
c44 -39 38 -138 -10 -172 -61 -43 -147 7 -147 85 0 63 22 96 75 111 28 8 56 0
82 -24z"/>
</g>
</svg>
